<svg width="465" height="58" viewBox="0 0 465 58" fill="none" xmlns="http://www.w3.org/2000/svg">
<path d="M2.592 36.4V30.832C2.592 25.552 5.712 21.232 12.336 21.232H29.424L25.536 29.008H15.312C13.296 29.008 10.8 29.296 10.8 32.416V34.816C10.8 37.936 13.296 38.272 15.312 38.272H25.536L29.424 46H12.336C5.712 46 2.592 41.68 2.592 36.4ZM56.8106 21.232L52.9226 29.008H46.5386C44.5226 29.008 42.0266 29.296 42.0266 32.416V46H33.8186V30.832C33.8186 25.552 36.9386 21.232 43.5626 21.232H56.8106ZM59.0295 36.4V30.832C59.0295 25.552 62.1495 21.232 68.7735 21.232H78.7575C85.3815 21.232 88.5495 25.552 88.5495 30.832C88.5495 31.504 88.5975 32.032 88.5975 32.368C88.5975 34.912 87.6375 36.928 84.5655 36.928H67.3335C67.8135 39.136 69.9735 39.376 71.7495 39.376H84.4695L87.7815 46H68.7735C62.1495 46 59.0295 41.68 59.0295 36.4ZM67.3335 30.304H80.2455C79.7655 28.144 77.6055 27.856 75.8295 27.856H71.7495C69.9255 27.856 67.8135 28.096 67.3335 30.304ZM102 12.016C102.144 12.544 102.192 13.168 102.192 13.984C102.192 14.752 102.144 15.376 102 15.952C101.664 17.248 100.752 18.064 99.744 18.4C99.072 18.64 98.352 18.688 97.392 18.688C96.432 18.688 95.664 18.64 95.04 18.4C94.032 18.064 93.12 17.248 92.784 15.952C92.688 15.376 92.64 14.752 92.64 13.984C92.64 13.168 92.64 12.544 92.784 12.016C93.12 10.72 94.032 9.856 95.04 9.52C95.664 9.328 96.432 9.232 97.392 9.232C98.352 9.232 99.072 9.328 99.744 9.52C100.752 9.856 101.664 10.72 102 12.016ZM101.52 46H93.264V21.232H101.52V46ZM129.601 46H116.257C109.633 46 106.465 41.68 106.513 36.4V30.832C106.513 25.552 109.633 21.232 116.257 21.232H128.017C134.689 21.232 137.809 25.552 137.809 30.832V48.4C137.809 53.68 134.689 58 128.017 58H110.929L114.817 50.224H125.041C127.105 50.224 129.601 49.936 129.601 46.816V46ZM119.233 38.272H129.601V32.416C129.601 29.296 127.105 29.008 125.041 29.008H119.233C117.217 29.008 114.721 29.296 114.721 32.416V34.816C114.721 37.936 117.217 38.272 119.233 38.272ZM152.286 9.232V21.232H161.598C168.222 21.232 171.39 25.552 171.39 30.832V46H163.134V32.416C163.134 29.296 160.686 29.008 158.622 29.008H152.286V46H144.078V11.776L152.286 9.232ZM193.349 46H187.877C181.253 46 178.085 41.728 178.085 36.4V29.008H175.781V21.232H178.085V11.776L186.341 9.232V21.232H193.349V29.008H186.341V34.816C186.341 37.936 188.837 38.272 190.853 38.272H193.349V46ZM208.078 12.016C208.222 12.544 208.27 13.168 208.27 13.984C208.27 14.752 208.222 15.376 208.078 15.952C207.742 17.248 206.83 18.064 205.822 18.4C205.15 18.64 204.43 18.688 203.47 18.688C202.51 18.688 201.742 18.64 201.118 18.4C200.11 18.064 199.198 17.248 198.862 15.952C198.766 15.376 198.718 14.752 198.718 13.984C198.718 13.168 198.718 12.544 198.862 12.016C199.198 10.72 200.11 9.856 201.118 9.52C201.742 9.328 202.51 9.232 203.47 9.232C204.43 9.232 205.15 9.328 205.822 9.52C206.83 9.856 207.742 10.72 208.078 12.016ZM207.598 46H199.342V21.232H207.598V46ZM227.018 46C225.53 46 223.946 45.184 222.986 43.264L211.754 21.232H220.298L227.018 35.104L233.69 21.232H242.282L231.002 43.264C230.042 45.184 228.458 46 227.018 46ZM244.889 36.4V30.832C244.889 25.552 248.009 21.232 254.633 21.232H264.617C271.241 21.232 274.409 25.552 274.409 30.832C274.409 31.504 274.457 32.032 274.457 32.368C274.457 34.912 273.497 36.928 270.425 36.928H253.193C253.673 39.136 255.833 39.376 257.609 39.376H270.329L273.641 46H254.633C248.009 46 244.889 41.68 244.889 36.4ZM253.193 30.304H266.105C265.625 28.144 263.465 27.856 261.689 27.856H257.609C255.785 27.856 253.673 28.096 253.193 30.304Z" fill="#9AA299"/>
<path d="M302.872 11.776L311.128 9.232V36.4C311.128 41.728 307.96 46.048 301.336 46.048H289.336C282.712 46.048 279.592 41.68 279.592 36.4V30.832C279.592 25.552 282.712 21.232 289.336 21.232H302.872V11.776ZM302.872 29.008H292.312C290.296 29.008 287.8 29.296 287.8 32.416V34.816C287.8 37.936 290.296 38.272 292.312 38.272H298.36C300.376 38.272 302.872 37.936 302.872 34.816V29.008ZM326.125 12.016C326.269 12.544 326.317 13.168 326.317 13.984C326.317 14.752 326.269 15.376 326.125 15.952C325.789 17.248 324.877 18.064 323.869 18.4C323.197 18.64 322.477 18.688 321.517 18.688C320.557 18.688 319.789 18.64 319.165 18.4C318.157 18.064 317.245 17.248 316.909 15.952C316.813 15.376 316.765 14.752 316.765 13.984C316.765 13.168 316.765 12.544 316.909 12.016C317.245 10.72 318.157 9.856 319.165 9.52C319.789 9.328 320.557 9.232 321.517 9.232C322.477 9.232 323.197 9.328 323.869 9.52C324.877 9.856 325.789 10.72 326.125 12.016ZM325.645 46H317.389V21.232H325.645V46ZM353.726 46H340.382C333.758 46 330.59 41.68 330.638 36.4V30.832C330.638 25.552 333.758 21.232 340.382 21.232H352.142C358.814 21.232 361.934 25.552 361.934 30.832V48.4C361.934 53.68 358.814 58 352.142 58H335.054L338.942 50.224H349.166C351.23 50.224 353.726 49.936 353.726 46.816V46ZM343.358 38.272H353.726V32.416C353.726 29.296 351.23 29.008 349.166 29.008H343.358C341.342 29.008 338.846 29.296 338.846 32.416V34.816C338.846 37.936 341.342 38.272 343.358 38.272ZM375.859 12.016C376.003 12.544 376.051 13.168 376.051 13.984C376.051 14.752 376.003 15.376 375.859 15.952C375.523 17.248 374.611 18.064 373.603 18.4C372.931 18.64 372.211 18.688 371.251 18.688C370.291 18.688 369.523 18.64 368.899 18.4C367.891 18.064 366.979 17.248 366.643 15.952C366.547 15.376 366.499 14.752 366.499 13.984C366.499 13.168 366.499 12.544 366.643 12.016C366.979 10.72 367.891 9.856 368.899 9.52C369.523 9.328 370.291 9.232 371.251 9.232C372.211 9.232 372.931 9.328 373.603 9.52C374.611 9.856 375.523 10.72 375.859 12.016ZM375.379 46H367.123V21.232H375.379V46ZM398.255 46H392.783C386.159 46 382.991 41.728 382.991 36.4V29.008H380.687V21.232H382.991V11.776L391.247 9.232V21.232H398.255V29.008H391.247V34.816C391.247 37.936 393.743 38.272 395.759 38.272H398.255V46ZM411.976 39.184H423.592V37.072H411.976C411.352 37.072 411.064 37.552 411.064 38.128C411.064 38.704 411.352 39.184 411.976 39.184ZM409.72 30.208H423.4C422.776 28.336 420.76 28.096 419.08 28.096H408.664L405.208 21.232H422.008C428.68 21.232 431.8 25.552 431.8 30.832V46H409.72C407.032 46 404.728 44.272 403.576 41.728C403.096 40.672 402.856 39.424 402.856 38.128C402.856 36.832 403.096 35.584 403.576 34.48C404.728 31.936 407.032 30.208 409.72 30.208ZM438.093 11.776L446.301 9.232V46H438.093V11.776Z" fill="#ECEEEC"/>
<path d="M462 38.8C462.144 39.376 462.192 40.096 462.192 40.912C462.192 41.776 462.144 42.496 462 43.072C461.712 44.464 460.752 45.376 459.744 45.712C459.12 45.952 458.352 46 457.392 46C456.48 46 455.712 45.952 455.04 45.712C454.032 45.376 453.12 44.464 452.832 43.072C452.688 42.496 452.64 41.776 452.64 40.912C452.64 40.096 452.688 39.376 452.832 38.8C453.12 37.408 454.032 36.496 455.04 36.16C455.712 35.92 456.48 35.824 457.392 35.824C458.352 35.824 459.12 35.92 459.744 36.16C460.752 36.496 461.712 37.408 462 38.8Z" fill="#ECEEEC"/>
</svg>
