<svg width="102" height="48" viewBox="0 0 102 48" fill="none" xmlns="http://www.w3.org/2000/svg">
<path d="M48.5085 7.22904L48.8842 6.5H48.064H29.248C24.6212 6.5 21.1666 8.01745 18.8723 10.5072C16.5846 12.9898 15.5 16.385 15.5 20.056V27.592C15.5 31.2631 16.5847 34.6469 18.8732 37.1178C21.168 39.5954 24.6225 41.1 29.248 41.1H48.064H48.8865L48.5079 40.3698L44.4759 32.5938L44.336 32.324H44.032H32.608C30.7144 32.324 28.7322 32.1746 27.2294 31.3372C26.4904 30.9255 25.8686 30.3475 25.4274 29.529C24.9841 28.7067 24.708 27.6136 24.708 26.152V21.496C24.708 20.0344 24.9841 18.9413 25.4274 18.119C25.8686 17.3005 26.4904 16.7225 27.2294 16.3108C28.7322 15.4734 30.7144 15.324 32.608 15.324H44.032H44.3368L44.4765 15.053L48.5085 7.22904ZM63.6862 41.148V41.1H76.8182C80.2179 41.1 82.7945 40.0047 84.5193 38.1838C86.239 36.3682 87.0622 33.8836 87.0622 31.192V30.088C87.0622 27.2244 86.1314 24.5718 84.1741 22.7709C85.3539 21.1397 85.9102 19.1077 85.9102 16.936V15.88C85.9102 13.3351 85.1485 10.9947 83.5493 9.2863C81.9444 7.57189 79.5468 6.548 76.3862 6.548H63.6182C60.4577 6.548 58.0601 7.57189 56.4552 9.2863C54.856 10.9947 54.0942 13.3351 54.0942 15.88V16.936C54.0942 19.1078 54.6507 21.1399 55.8306 22.7712C53.8748 24.5753 52.9902 27.2307 52.9902 30.088V31.192C52.9902 33.8814 53.8002 36.3772 55.5068 38.2052C57.2192 40.0395 59.7847 41.148 63.1862 41.148H63.6862ZM66.9302 15.276H73.0742C73.132 15.276 73.1896 15.2759 73.2471 15.2759C74.1357 15.2749 74.9817 15.274 75.6305 15.505C75.958 15.6216 76.2011 15.7875 76.3667 16.0188C76.532 16.2498 76.6543 16.5937 76.6543 17.128C76.6543 17.6623 76.532 18.0062 76.3667 18.2372C76.2011 18.4685 75.958 18.6344 75.6305 18.751C74.9817 18.982 74.1357 18.9811 73.2471 18.9801C73.1896 18.9801 73.132 18.98 73.0742 18.98H66.9302C66.8709 18.98 66.8117 18.9801 66.7528 18.9801C65.8429 18.9811 64.9858 18.982 64.3308 18.7506C64.0002 18.6337 63.7561 18.4677 63.5901 18.2366C63.4245 18.0059 63.3022 17.6623 63.3022 17.128C63.3022 16.5937 63.4245 16.2501 63.5901 16.0194C63.7561 15.7883 64.0002 15.6223 64.3308 15.5054C64.9858 15.274 65.8429 15.2749 66.7528 15.2759C66.8117 15.2759 66.8709 15.276 66.9302 15.276ZM66.4982 27.756H73.5063C73.5631 27.756 73.6199 27.756 73.6767 27.7559C74.7346 27.7551 75.7604 27.7543 76.5464 28.0383C76.9426 28.1814 77.2448 28.3873 77.4524 28.6795C77.6598 28.9716 77.8063 29.3972 77.8063 30.04C77.8063 30.6964 77.659 31.1322 77.4501 31.4315C77.2415 31.7302 76.9387 31.9394 76.5437 32.0847C75.7581 32.3736 74.7321 32.3729 73.6724 32.3721C73.6171 32.372 73.5617 32.372 73.5063 32.372H66.4982C66.4428 32.372 66.3874 32.372 66.3321 32.3721C65.2724 32.3729 64.2464 32.3736 63.4608 32.0847C63.0658 31.9394 62.7631 31.7302 62.5544 31.4315C62.3455 31.1322 62.1982 30.6964 62.1982 30.04C62.1982 29.3972 62.3447 28.9716 62.5521 28.6795C62.7597 28.3873 63.0619 28.1814 63.4581 28.0383C64.2441 27.7543 65.2699 27.7551 66.3278 27.7559C66.3846 27.756 66.4414 27.756 66.4982 27.756Z" fill="#141716" stroke="#141716"/>
</svg>
